/* XPM */
static char *b2d50b05baa0417cb77e3b57426973be[] = {
/* columns rows colors chars-per-pixel */
"25 25 3 1 ",
"  c None",
". c #FF5454",
"X c #FF5555",
/* pixels */
"           X             ",
"         XXXXXXX.X       ",
"       XXXXX.X.XXXX      ",
"      XXXX       XXX     ",
"     XXX          XXX    ",
"     XX            XXX   ",
"    XX              X    ",
"   XX       XX      XX   ",
"   XX      X        XX   ",
"   X                .X   ",
"   X      X         XX   ",
"   X      X         X    ",
"   X      X         X    ",
"   X       X       X     ",
"   X        X     X      ",
"   XX       XXXXXX       ",
"   XX                    ",
"    XX                   ",
"    XX                   ",
"     XX                  ",
"      X                  ",
"       X                 ",
"        X                ",
"         XX              ",
"                         "
};
